<svg id="Capa_1" enable-background="new 0 0 512 512" height="512" viewBox="0 0 512 512" width="512" xmlns="http://www.w3.org/2000/svg"><g><path fill="#000000" fill-rule="nonzero" d="m476.165 174.374h-121.511v-123.269c0-19.94-16.224-36.155-36.155-36.155h-282.344c-19.931 0-36.155 16.214-36.155 36.155v181.493c0 19.94 16.224 36.165 36.155 36.165h36.115v47.913c0 22.714 27.646 33.945 43.717 18.102l46.355-45.685v99.813c0 19.761 16.074 35.835 35.835 35.835h152.541l65.886 64.937c16.017 15.788 43.428 4.569 43.428-17.992v-46.946h16.134c19.761 0 35.835-16.074 35.835-35.835v-178.706c-.001-19.75-16.075-35.825-35.836-35.825zm-313.824 35.825v36.804l-60.101 59.232v-52.459c0-8.282-6.703-14.985-14.985-14.985h-51.1c-3.407 0-6.184-2.777-6.184-6.194v-181.492c0-3.407 2.777-6.184 6.184-6.184h282.344c3.407 0 6.184 2.777 6.184 6.184v123.27h-126.507c-19.76-.001-35.835 16.074-35.835 35.824zm319.688 178.706c0 3.237-2.627 5.864-5.864 5.864h-31.12c-8.272 0-14.985 6.704-14.985 14.985v51.11l-62.689-61.79c-2.797-2.757-6.574-4.306-10.52-4.306h-158.675c-3.237 0-5.864-2.627-5.864-5.864 0-6.628 0-171.393 0-178.706 0-3.227 2.627-5.854 5.864-5.854h277.989c3.237 0 5.864 2.627 5.864 5.854z"/><path fill="#000000" fill-rule="nonzero" d="m282.224 106.887c0-8.276-6.709-14.985-14.985-14.985h-179.824c-8.276 0-14.985 6.709-14.985 14.985s6.709 14.985 14.985 14.985h179.824c8.276.001 14.985-6.709 14.985-14.985z"/><path fill="#000000" fill-rule="nonzero" d="m125.544 161.834h-38.129c-8.276 0-14.985 6.709-14.985 14.985s6.709 14.985 14.985 14.985h38.129c8.276 0 14.985-6.709 14.985-14.985s-6.709-14.985-14.985-14.985z"/><path fill="#000000" fill-rule="nonzero" d="m260.246 284.569c-8.276 0-14.985 6.709-14.985 14.985s6.709 14.985 14.985 14.985c8.276 0 14.985-6.709 14.985-14.985s-6.709-14.985-14.985-14.985z"/><path fill="#000000" fill-rule="nonzero" d="m337.171 284.569c-8.276 0-14.985 6.709-14.985 14.985s6.709 14.985 14.985 14.985c8.276 0 14.985-6.709 14.985-14.985s-6.709-14.985-14.985-14.985z"/><path fill="#000000" fill-rule="nonzero" d="m414.096 284.569c-8.276 0-14.985 6.709-14.985 14.985s6.709 14.985 14.985 14.985c8.276 0 14.985-6.709 14.985-14.985s-6.709-14.985-14.985-14.985z"/></g></svg>